<svg width="1196" height="200" viewBox="0 0 1196 200" fill="none" xmlns="http://www.w3.org/2000/svg">
<path d="M172.951 130.327V45.0117H217.667V131.804C217.667 146.217 228.258 156.816 242.671 156.816C257.084 156.816 267.97 146.225 267.97 131.804V45.0117H312.687V130.327C312.687 169.457 282.383 199.17 242.671 199.17C202.959 199.17 172.942 169.752 172.942 130.327H172.951Z" fill="#1a75e4"/>
<path d="M637.618 45.0133H680.866V56.4899C690.579 47.0807 703.229 41.7812 717.642 41.7812C734.114 41.7812 749.118 48.8444 759.709 60.3126C771.768 48.836 788.544 41.7812 807.075 41.7812C844.441 41.7812 872.686 69.7301 872.686 106.506V195.652H827.969V111.805C827.969 96.2107 816.206 83.8565 801.193 83.8565C790.307 83.8565 781.185 90.329 777.067 99.4512C777.362 101.806 777.362 104.16 777.362 106.514V195.661H732.646V111.518C732.646 96.2192 720.882 83.8649 705.878 83.8649C695.879 83.8649 687.052 89.4513 682.343 97.6959V195.661H637.626V45.0133H637.618Z" fill="#1a75e4"/>
<path d="M450.727 147.483C443.419 152.749 435.166 156.816 427.377 156.816C413.546 156.816 405.605 148.875 405.605 134.749V87.0872H457.68V45.0203H405.605V0H360.889V45.0119H325.876V87.0787H360.889V139.449C360.889 174.748 385.597 199.17 421.495 199.17C436.567 199.17 451.942 195.035 464.271 186.208C466.051 184.934 469.823 180.841 469.823 180.841C460.465 170.478 454.862 159.626 450.727 147.474V147.483Z" fill="#1a75e4"/>
<path d="M463.908 118.565C463.908 75.0217 500.093 40.0181 544.227 40.0181C588.361 40.0181 624.546 75.3171 624.546 118.565C624.546 161.814 588.657 197.408 544.227 197.408C499.797 197.408 463.908 162.109 463.908 118.565ZM544.227 155.046C563.644 155.046 579.83 138.565 579.83 118.565C579.83 98.5656 563.653 82.0849 544.227 82.0849C524.801 82.0849 508.633 98.5656 508.633 118.565C508.633 138.565 524.523 155.046 544.227 155.046Z" fill="#1a75e4"/>
<path d="M1088.44 139.449V87.0787H1053.43V45.0119H1088.44V0H1133.15V45.0119H1185.23V87.0787H1133.15V134.74C1133.15 148.858 1141.09 156.808 1154.93 156.808C1163.16 156.808 1170.82 153.862 1178.46 147.981L1195.23 183.575C1182.58 193.575 1166.39 199.17 1149.04 199.17C1113.15 199.17 1088.43 174.748 1088.43 139.449H1088.44Z" fill="#1a75e4"/>
<path d="M997.427 45.0119V57.3662C988.009 47.071 975.064 41.7715 959.478 41.7715C918.584 41.7715 884.163 77.6612 884.163 120.614C884.163 163.567 918.289 199.161 959.478 199.161C975.368 199.161 988.017 193.862 997.427 183.567V195.625H1040.97V45.0119H997.427ZM965.25 156.841C963.959 156.841 962.684 156.774 961.436 156.639C954.305 155.955 947.765 153.12 942.44 148.791C942.305 148.681 942.178 148.58 942.043 148.47C941.951 148.394 941.858 148.31 941.773 148.234C933.892 141.559 928.888 131.601 928.888 120.471C928.888 120.445 928.888 120.42 928.888 120.395C928.888 120.369 928.888 120.344 928.888 120.319C928.888 100.311 945.064 83.8383 964.777 83.8383C969.191 83.8383 973.435 84.6737 977.385 86.1758C991.503 91.1715 1001.63 104.631 1001.63 120.462C1001.63 140.546 985.342 156.833 965.258 156.833L965.25 156.841Z" fill="#1a75e4"/>
<path d="M113.264 45.0119V57.3662C103.846 47.071 90.9014 41.7715 75.3152 41.7715C34.4214 41.7715 0 77.6612 0 120.614C0 163.567 34.126 199.161 75.3152 199.161C91.2052 199.161 103.855 193.862 113.264 183.567V195.625H156.808V45.0119H113.264ZM81.0873 156.841C79.7961 156.841 78.5219 156.774 77.273 156.639C70.1423 155.955 63.6023 153.12 58.2775 148.791C58.1425 148.681 58.0159 148.58 57.8809 148.47C57.7881 148.394 57.6953 148.31 57.6109 148.234C49.7291 141.559 44.725 131.601 44.725 120.471C44.725 120.445 44.725 120.42 44.725 120.395C44.725 120.369 44.725 120.344 44.725 120.319C44.725 100.311 60.9019 83.8383 80.6147 83.8383C85.0281 83.8383 89.2728 84.6737 93.2221 86.1758C107.34 91.1715 117.458 104.631 117.458 120.462C117.458 140.546 101.171 156.833 81.0873 156.833V156.841Z" fill="#1a75e4"/>
</svg>
